# xmcd
#
# Track frame offsets: 
#        150
#        14288
#        27002
#        41706
#        73175
#        91312
#        116025
#        132228
#        152539
#        171258
#        192680
#        210584
#
# Disc length: 3099 seconds
#
# Revision: 3
# Processed by: cddbd v1.5.2PL0 Copyright (c) Steve Scherf et al.
# Submitted via: ExactAudioCopy v1.0b4
#
DISCID=a50c190c
DTITLE=James Harman - Bonetime
DYEAR=2015
DGENRE=Blues
TTITLE0=Bonetime
TTITLE1=(I Am) The World's Badluckest Man
TTITLE2=Ain't It Crazy
TTITLE3=Coldfront Woman
TTITLE4=Big Boned Gal
TTITLE5=Bad Feets - Bad Hair
TTITLE6=Just A Game Goin' On
TTITLE7=Blue Stretchmark Tattoo
TTITLE8=Yo' Family (Don't Like Me)
TTITLE9=Leavin' Fire
TTITLE10=Skirt
TTITLE11=The Clock Is Tickin'
EXTD=
EXTT0=
EXTT1=
EXTT2=
EXTT3=
EXTT4=
EXTT5=
EXTT6=
EXTT7=
EXTT8=
EXTT9=
EXTT10=
EXTT11=
PLAYORDER=
